<?xml version="1.0" encoding="UTF-8" standalone="no"?>
<svg width="16px" height="16px" viewBox="0 0 100 100" xmlns="http://www.w3.org/2000/svg" xmlns:svg="http://www.w3.org/2000/svg">
  <style>
    path { fill: black; }
    @media (prefers-color-scheme: dark) {
      path { fill: white; }
    }
  </style>
  <path
     style="stroke-width:1.95209"
     d="M 25.368994 15.000118 A 20.36914 11.184301 0 0 0 5.0002116 26.184448 A 20.36914 11.184301 0 0 0 25.368994 37.368778 A 20.36914 11.184301 0 0 0 31.952572 36.742977 A 20.36914 11.184301 0 0 0 39.734526 37.592021 A 20.36914 11.184301 0 0 0 43.412854 37.384798 C 47.110412 40.268887 50.910692 43.782172 53.95743 47.812069 C 49.68939 49.366278 42.668432 48.888489 35.338928 48.183105 A 9.2237611 6.3215609 0 0 0 35.814351 46.18116 A 9.2237611 6.3215609 0 0 0 26.590625 39.859583 A 9.2237611 6.3215609 0 0 0 17.366899 46.18116 A 9.2237611 6.3215609 0 0 0 25.635128 52.459847 A 9.2237611 6.3215609 0 0 0 24.241931 55.782125 A 9.2237611 6.3215609 0 0 0 33.465658 62.103703 A 9.2237611 6.3215609 0 0 0 42.689384 55.782125 A 9.2237611 6.3215609 0 0 0 42.467692 54.410632 C 47.100606 55.095841 52.164747 55.235504 57.953569 54.458175 C 60.146458 59.390052 60.892657 64.862767 59.049626 70.735734 L 6.6057983 70.735734 L 10.221082 84.99998 L 88.822485 84.99998 L 92.437769 70.735734 L 77.282104 70.735734 L 77.577177 70.332658 C 74.783082 57.975127 68.926124 49.077756 61.479968 42.660962 C 64.525704 36.176591 67.927597 33.523509 71.98372 32.087447 A 10.632948 6.8078349 0 0 0 75.764884 33.146297 A 10.632948 6.8078349 0 0 0 84.366943 35.969381 A 10.632948 6.8078349 0 0 0 94.999886 29.161528 A 10.632948 6.8078349 0 0 0 86.632955 22.510771 A 10.632948 6.8078349 0 0 0 78.045882 19.702673 A 10.632948 6.8078349 0 0 0 67.412939 26.510527 A 10.632948 6.8078349 0 0 0 69.060384 30.128394 C 63.336983 32.341657 58.64115 35.423509 55.819332 38.421944 C 54.279654 37.42441 52.69413 36.511456 51.075435 35.669141 A 20.36914 11.184301 0 0 0 60.103308 26.40769 A 20.36914 11.184301 0 0 0 39.734526 15.22336 A 20.36914 11.184301 0 0 0 33.146297 15.849679 A 20.36914 11.184301 0 0 0 25.368994 15.000118 z " />
</svg>
